# File created by Blade
# Date/Time:  Tue Apr 07 20:57:09 2015
# Frame Rate: 120.000 fps
#------------------------------------------------------
:FULLY-SPECIFIED
:DEGREES
963
root 14.147006 32.276994 12.581297 372.498796 -78.847980 -718.382299
Spine -15.299090 11.919885 -7.956285
Head 18.902373 1.750611 -0.774209
LeftShoulder -32.346306 49.333090 6.745345
LeftArm 55.421396 -45.750440 -95.605785
LeftForeArm -7.448484 0.000000 -0.800218
LeftHand 9.785042 -0.000000 16.519077
LeftHandThumb1 -26.253704 0.000000 33.147579
RightShoulder -1.288365 4.733436 -25.111682
RightArm 24.975426 -0.270873 65.135500
RightForeArm -12.120755 0.000000 16.509319
RightHand 8.800919 0.000000 -4.318750
RightHandThumb1 -24.326973 -0.000000 -32.862282
LeftUpLeg -30.840348 -1.594925 -8.772112
LeftLeg 11.442361 -0.000000 -0.000000
LeftFoot 5.862617 16.339816 -10.838775
LeftToeBase -12.833287 -0.000000 0.000000
RightUpLeg -8.531043 -7.343806 6.174835
RightLeg 36.081323 -0.000000 -0.000000
RightFoot 6.213370 9.258325 21.388068
RightToeBase -30.499857 -0.000000 0.000000
964
root 13.861373 32.304934 12.562516 371.671970 -77.616472 -717.590785
Spine -15.152827 11.334734 -8.056543
Head 18.384775 1.943319 -0.815951
LeftShoulder -32.132511 49.118464 6.910554
LeftArm 55.859217 -45.892772 -95.793293
LeftForeArm -7.282357 -0.000000 -0.875102
LeftHand 9.721166 -0.000000 16.524822
LeftHandThumb1 -26.253704 0.000000 33.147579
RightShoulder -1.328323 4.697033 -25.222089
RightArm 24.761059 -0.172865 65.147843
RightForeArm -12.136749 -0.000000 16.349615
RightHand 8.720346 0.000000 -4.627046
RightHandThumb1 -24.326973 -0.000000 -32.862282
LeftUpLeg -30.238643 -1.654554 -9.072973
LeftLeg 11.536288 -0.000000 -0.000000
LeftFoot 5.413566 15.283397 -10.795767
LeftToeBase -12.651156 -0.000000 0.000000
RightUpLeg -9.470921 -7.771533 5.682931
RightLeg 38.211949 -0.000000 -0.000000
RightFoot 7.425050 10.879035 24.209785
RightToeBase -28.072688 -0.000000 0.000000
965
root 13.588009 32.330413 12.540987 371.267026 -76.357608 -717.234834
Spine -14.960871 10.756929 -8.045074
Head 17.846702 2.184761 -0.881971
LeftShoulder -31.883798 48.913124 7.091762
LeftArm 56.254882 -45.969315 -95.949647
LeftForeArm -7.220803 -0.000000 -0.936126
LeftHand 9.780448 -0.000000 16.443389
LeftHandThumb1 -26.253704 0.000000 33.147579
RightShoulder -1.316930 4.761842 -25.359749
RightArm 24.432454 0.036952 65.138579
RightForeArm -12.121506 -0.000000 16.206854
RightHand 8.759637 -0.000000 -4.787618
RightHandThumb1 -24.326973 -0.000000 -32.862282
LeftUpLeg -29.675313 -1.652609 -9.317982
LeftLeg 11.680219 -0.000000 -0.000000
LeftFoot 4.995499 14.181818 -10.639024
LeftToeBase -12.608640 -0.000000 0.000000
RightUpLeg -10.355726 -7.975509 5.253681
RightLeg 40.142092 -0.000000 -0.000000
RightFoot 8.143816 12.204794 27.080353
RightToeBase -25.557285 -0.000000 0.000000
966
root 13.324588 32.355085 12.512552 371.377115 -75.028805 -717.425323
Spine -14.708596 10.208123 -7.870672
Head 17.269251 2.430495 -1.007862
LeftShoulder -31.545739 48.679020 7.330907
LeftArm 56.567405 -45.949317 -96.011881
LeftForeArm -7.112424 -0.000000 -0.952167
LeftHand 9.755235 -0.000000 16.433777
LeftHandThumb1 -26.253704 0.000000 33.147579
RightShoulder -1.364141 4.753988 -25.482520
RightArm 24.222457 0.273439 65.001465
RightForeArm -11.903165 -0.000000 15.980616
RightHand 9.023118 -0.000000 -4.590723
RightHandThumb1 -24.326973 -0.000000 -32.862282
LeftUpLeg -29.125614 -1.716992 -9.385989
LeftLeg 11.854614 -0.000000 -0.000000
LeftFoot 4.571364 13.102251 -10.450432
LeftToeBase -12.576675 -0.000000 0.000000
RightUpLeg -11.187007 -8.052474 4.962361
RightLeg 41.820563 -0.000000 -0.000000
RightFoot 8.713456 13.312519 29.590405
RightToeBase -22.960658 -0.000000 0.000000
967
root 13.070985 32.380802 12.477284 371.771097 -73.652313 -717.890173
Spine -14.435963 9.627028 -7.574273
Head 16.657990 2.641957 -1.191272
LeftShoulder -31.499501 48.507404 7.288908
LeftArm 57.098213 -45.737976 -96.053141
LeftForeArm -7.076778 0.000000 -0.988079
LeftHand 9.749351 -0.000000 16.410533
LeftHandThumb1 -26.253704 0.000000 33.147579
RightShoulder -1.405293 4.850454 -25.620273
RightArm 23.935779 0.347071 64.789101
RightForeArm -11.918537 -0.000000 15.796437
RightHand 8.962272 -0.000000 -4.660100
RightHandThumb1 -24.326973 -0.000000 -32.862282
LeftUpLeg -28.615303 -1.868734 -9.300094
LeftLeg 12.011907 -0.000000 -0.000000
LeftFoot 4.220214 12.078163 -10.261413
LeftToeBase -12.685996 -0.000000 0.000000
RightUpLeg -12.008921 -8.068410 4.792404
RightLeg 43.269649 -0.000000 -0.000000
RightFoot 9.055617 14.396337 30.937589
RightToeBase -22.420128 -0.000000 0.000000
968
root 12.827674 32.406393 12.438302 372.269737 -72.185292 -718.522469
Spine -14.074096 9.013480 -7.158207
Head 16.038108 2.912685 -1.393599
LeftShoulder -31.131902 48.197729 7.560029
LeftArm 56.964376 -45.419401 -95.620084
LeftForeArm -7.241361 0.000000 -0.867677
LeftHand 9.795008 -0.000000 16.276406
LeftHandThumb1 -26.253704 0.000000 33.147579
RightShoulder -1.456238 4.826615 -25.759025
RightArm 23.770281 0.541103 64.526777
RightForeArm -11.657290 -0.000000 15.551880
RightHand 9.112221 0.000000 -4.697054
RightHandThumb1 -24.326973 -0.000000 -32.862282
LeftUpLeg -28.077992 -2.188095 -9.052018
LeftLeg 12.173065 -0.000000 -0.000000
LeftFoot 3.859958 11.101669 -10.020335
LeftToeBase -12.668899 -0.000000 0.000000
RightUpLeg -12.785608 -8.296362 4.695532
RightLeg 44.596957 -0.000000 -0.000000
RightFoot 8.536581 15.657036 30.828722
RightToeBase -24.376237 -0.000000 0.000000
969
root 12.583949 32.436063 12.401515 372.765931 -70.790527 -719.172633
Spine -13.749825 8.519928 -6.733713
Head 15.513932 3.162029 -1.534970
LeftShoulder -30.854072 48.046271 7.732347
LeftArm 57.353486 -45.181253 -95.703774
LeftForeArm -7.002053 -0.000000 -0.734737
LeftHand 9.758067 -0.000000 16.145449
LeftHandThumb1 -26.253704 0.000000 33.147579
RightShoulder -1.527063 4.787023 -25.833825
RightArm 23.598385 0.591189 64.127263
RightForeArm -11.486630 0.000000 15.308113
RightHand 9.120779 0.000000 -4.788795
RightHandThumb1 -24.326973 -0.000000 -32.862282
LeftUpLeg -27.461433 -2.524862 -8.748555
LeftLeg 12.162511 -0.000000 -0.000000
LeftFoot 3.475430 10.353439 -10.096641
LeftToeBase -12.741319 -0.000000 0.000000
RightUpLeg -13.422386 -8.170345 4.614157
RightLeg 45.535211 -0.000000 -0.000000
RightFoot 6.964582 16.521610 30.942979
RightToeBase -23.571672 -0.000000 0.000000
970
root 12.344392 32.471992 12.364933 373.238569 -69.379001 -719.791507
Spine -13.459740 8.001518 -6.287254
Head 15.059168 3.457979 -1.655482
LeftShoulder -30.618884 47.926359 7.877416
LeftArm 57.701295 -44.855185 -95.681309
LeftForeArm -6.790757 -0.000000 -0.634041
LeftHand 9.762719 -0.000000 16.016461
LeftHandThumb1 -26.253704 0.000000 33.147579
RightShoulder -1.611985 4.543125 -25.817658
RightArm 23.666044 0.667288 63.622527
RightForeArm -11.411024 -0.000000 15.036421
RightHand 9.083660 0.000000 -4.916498
RightHandThumb1 -24.326973 -0.000000 -32.862282
LeftUpLeg -26.836058 -3.036593 -8.333531
LeftLeg 12.078634 -0.000000 -0.000000
LeftFoot 3.213700 9.710452 -10.026614
LeftToeBase -12.905076 -0.000000 0.000000
RightUpLeg -14.005851 -8.045464 4.516959
RightLeg 46.075238 -0.000000 -0.000000
RightFoot 4.875244 16.415804 31.119877
RightToeBase -22.684933 -0.000000 0.000000
971
root 12.108215 32.514351 12.328460 373.739524 -67.966597 -720.409060
Spine -13.229310 7.502042 -5.811790
Head 14.656035 3.763313 -1.780045
LeftShoulder -30.469033 47.863733 7.926025
LeftArm 58.096311 -44.418076 -95.562046
LeftForeArm -6.556042 -0.000000 -0.560183
LeftHand 9.749769 0.000000 15.790774
LeftHandThumb1 -26.253704 0.000000 33.147579
RightShoulder -1.661013 4.408032 -25.845984
RightArm 23.511589 0.671574 63.146613
RightForeArm -11.233698 -0.000000 14.857960
RightHand 9.171481 0.000000 -4.943205
RightHandThumb1 -24.326973 -0.000000 -32.862282
LeftUpLeg -26.203064 -3.607635 -7.859458
LeftLeg 11.867494 -0.000000 -0.000000
LeftFoot 3.020339 9.136872 -10.066357
LeftToeBase -12.987645 -0.000000 0.000000
RightUpLeg -14.560172 -7.928061 4.409046
RightLeg 46.254143 -0.000000 -0.000000
RightFoot 2.681181 15.815679 30.819301
RightToeBase -22.754518 -0.000000 0.000000
972
root 11.873289 32.564208 12.290149 374.290531 -66.572991 -721.081295
Spine -13.032295 7.104883 -5.307162
Head 14.308857 4.028473 -1.876766
LeftShoulder -30.174585 47.775026 8.070160
LeftArm 58.341185 -43.930358 -95.217861
LeftForeArm -6.397366 -0.000000 -0.552521
LeftHand 9.828961 -0.000000 15.560339
LeftHandThumb1 -26.253704 0.000000 33.147579
RightShoulder -1.752269 4.216523 -25.846915
RightArm 23.372642 0.849607 62.734711
RightForeArm -11.168871 -0.000000 14.683131
RightHand 9.108910 -0.000000 -4.844681
RightHandThumb1 -24.326973 -0.000000 -32.862282
LeftUpLeg -25.546903 -4.102146 -7.354071
LeftLeg 11.563889 -0.000000 -0.000000
LeftFoot 2.876309 8.633466 -9.957811
LeftToeBase -12.788657 -0.000000 0.000000
RightUpLeg -14.991486 -7.458457 4.327695
RightLeg 46.057039 -0.000000 -0.000000
RightFoot 0.185374 14.825161 30.377020
RightToeBase -22.534577 -0.000000 0.000000
973
root 11.636752 32.617747 12.264315 374.421463 -65.212963 -721.342277
Spine -12.838497 6.694621 -4.976625
Head 14.021708 4.235822 -1.929131
LeftShoulder -29.909798 47.721255 8.248180
LeftArm 58.474289 -43.352475 -94.708781
LeftForeArm -6.314331 -0.000000 -0.541512
LeftHand 9.935431 0.000000 15.202633
LeftHandThumb1 -26.253704 0.000000 33.147579
RightShoulder -1.854609 3.982020 -25.824066
RightArm 23.198408 0.887688 62.296682
RightForeArm -11.026667 0.000000 14.586799
RightHand 9.060871 -0.000000 -4.997445
RightHandThumb1 -24.326973 -0.000000 -32.862282
LeftUpLeg -24.752638 -4.765760 -6.939811
LeftLeg 11.035255 -0.000000 -0.000000
LeftFoot 2.904637 8.210396 -10.296415
LeftToeBase -12.873103 -0.000000 0.000000
RightUpLeg -15.403165 -7.305958 3.999730
RightLeg 45.805837 -0.000000 -0.000000
RightFoot -2.251241 13.890802 29.161176
RightToeBase -21.549072 -0.000000 0.000000
974
root 11.409556 32.676500 12.232091 374.626829 -63.833808 -721.639993
Spine -12.680552 6.265088 -4.612785
Head 13.753083 4.523801 -1.964487
LeftShoulder -29.707964 47.686761 8.357642
LeftArm 58.676066 -42.745547 -94.166399
LeftForeArm -6.183477 -0.000000 -0.566300
LeftHand 9.887869 -0.000000 14.867661
LeftHandThumb1 -26.253704 0.000000 33.147579
RightShoulder -1.931621 3.747998 -25.809081
RightArm 23.022777 1.057753 61.932735
RightForeArm -10.970326 -0.000000 14.487500
RightHand 9.135957 -0.000000 -4.922967
RightHandThumb1 -24.326973 -0.000000 -32.862282
LeftUpLeg -24.029422 -5.427419 -6.493807
LeftLeg 10.494525 -0.000000 -0.000000
LeftFoot 2.995175 7.859971 -10.499958
LeftToeBase -12.843991 -0.000000 0.000000
RightUpLeg -15.808010 -7.106274 3.667025
RightLeg 45.303807 -0.000000 -0.000000
RightFoot -4.382613 12.758972 27.942155
RightToeBase -20.008151 -0.000000 0.000000
